<?xml version="1.0" encoding="UTF-8" standalone="no"?>
<!DOCTYPE svg PUBLIC "-//W3C//DTD SVG 1.1//EN"
 "http://www.w3.org/Graphics/SVG/1.1/DTD/svg11.dtd">
<!-- Generated by graphviz version 2.36.0 (20140111.2315)
 -->
<!-- Title: test Pages: 1 -->
<svg width="285pt" height="188pt"
 viewBox="0.00 0.00 285.00 188.00" xmlns="http://www.w3.org/2000/svg" xmlns:xlink="http://www.w3.org/1999/xlink">
<g id="graph0" class="graph" transform="scale(1 1) rotate(0) translate(4 184)">
<title>test</title>
<polygon fill="white" stroke="none" points="-4,4 -4,-184 281,-184 281,4 -4,4"/>
<!-- G0401 -->
<g id="node1" class="node"><title>G0401</title>
<ellipse fill="none" stroke="black" cx="35" cy="-90" rx="35.6194" ry="18"/>
<text text-anchor="middle" x="35" y="-86.3" font-family="Times,serif" font-size="14.00">G0401</text>
</g>
<!-- TG0000 -->
<g id="node2" class="node"><title>TG0000</title>
<ellipse fill="none" stroke="black" cx="124" cy="-18" rx="40.4202" ry="18"/>
<text text-anchor="middle" x="124" y="-14.3" font-family="Times,serif" font-size="14.00">TG0000</text>
</g>
<!-- G0401&#45;&gt;TG0000 -->
<g id="edge4" class="edge"><title>G0401&#45;&gt;TG0000</title>
<path fill="none" stroke="red" d="M49.032,-73.4647C60.7551,-63.2963 77.6224,-49.9139 92.461,-38.9592"/>
<polygon fill="red" stroke="red" points="94.8686,-41.5366 100.909,-32.8324 90.759,-35.87 94.8686,-41.5366"/>
<text text-anchor="middle" x="91.0335" y="-29.9595" font-family="Times,serif" font-size="6.00">0.0</text>
<text text-anchor="middle" x="59.0026" y="-72.9307" font-family="Times,serif" font-size="6.00">0.2</text>
</g>
<!-- G0401&#45;&gt;TG0000 -->
<g id="edge5" class="edge"><title>G0401&#45;&gt;TG0000</title>
<path fill="none" stroke="black" d="M57.1517,-75.8335C73.5068,-64.2691 95.0651,-47.4099 109.366,-35.0567"/>
<text text-anchor="middle" x="99.3973" y="-32.9617" font-family="Times,serif" font-size="6.00">0.0</text>
<text text-anchor="middle" x="67.018" y="-76.1632" font-family="Times,serif" font-size="6.00">0.2</text>
</g>
<!-- G0976 -->
<g id="node3" class="node"><title>G0976</title>
<ellipse fill="none" stroke="black" cx="124" cy="-90" rx="35.6194" ry="18"/>
<text text-anchor="middle" x="124" y="-86.3" font-family="Times,serif" font-size="14.00">G0976</text>
</g>
<!-- G0976&#45;&gt;TG0000 -->
<g id="edge7" class="edge"><title>G0976&#45;&gt;TG0000</title>
<path fill="none" stroke="red" d="M107.092,-74.1548C103.872,-65.5765 102.979,-54.5478 104.412,-44.6098"/>
<polygon fill="red" stroke="red" points="107.837,-45.3353 106.748,-34.7966 101.027,-43.7144 107.837,-45.3353"/>
<text text-anchor="middle" x="98.2317" y="-38.7382" font-family="Times,serif" font-size="6.00">0.0</text>
<text text-anchor="middle" x="111.519" y="-63.8879" font-family="Times,serif" font-size="6.00">0.0</text>
</g>
<!-- G0976&#45;&gt;TG0000 -->
<g id="edge8" class="edge"><title>G0976&#45;&gt;TG0000</title>
<path fill="none" stroke="blue" d="M118.122,-72.055C117.304,-64.3456 117.061,-55.0269 117.395,-46.3642"/>
<polygon fill="blue" stroke="blue" points="120.894,-46.4915 118.087,-36.2753 113.911,-46.0122 120.894,-46.4915"/>
<text text-anchor="middle" x="110.549" y="-41.5457" font-family="Times,serif" font-size="6.00">0.0</text>
<text text-anchor="middle" x="124.479" y="-63.036" font-family="Times,serif" font-size="6.00">1.0</text>
</g>
<!-- G0976&#45;&gt;TG0000 -->
<g id="edge9" class="edge"><title>G0976&#45;&gt;TG0000</title>
<path fill="none" stroke="darkgreen" d="M129.878,-72.055C131.029,-61.2111 131.04,-47.183 129.913,-36.2753"/>
<text text-anchor="middle" x="123.508" y="-42.6551" font-family="Times,serif" font-size="6.00">0.0</text>
<text text-anchor="middle" x="137.574" y="-64.3695" font-family="Times,serif" font-size="6.00">0.0*</text>
</g>
<!-- G0976&#45;&gt;TG0000 -->
<g id="edge10" class="edge"><title>G0976&#45;&gt;TG0000</title>
<path fill="none" stroke="black" d="M140.908,-74.1548C145.246,-62.5966 145.361,-46.5901 141.252,-34.7966"/>
<text text-anchor="middle" x="136.531" y="-42.3123" font-family="Times,serif" font-size="6.00">0.0</text>
<text text-anchor="middle" x="149.827" y="-68.3319" font-family="Times,serif" font-size="6.00">1.0</text>
</g>
<!-- G0976&#45;&gt;G0976 -->
<g id="edge6" class="edge"><title>G0976&#45;&gt;G0976</title>
<path fill="none" stroke="darkgreen" d="M159.235,-103.444C169.271,-102.9 177,-98.4188 177,-90 177,-81.5812 169.271,-77.0999 159.235,-76.5563"/>
<polygon fill="darkgreen" stroke="darkgreen" points="159.296,-99.94 149.083,-102.758 158.824,-106.924 159.296,-99.94"/>
<polygon fill="darkgreen" stroke="darkgreen" points="158.824,-73.0759 149.083,-77.2416 159.296,-80.06 158.824,-73.0759"/>
</g>
<!-- G0000 -->
<g id="node4" class="node"><title>G0000</title>
<ellipse fill="none" stroke="black" cx="124" cy="-162" rx="35.6194" ry="18"/>
<text text-anchor="middle" x="124" y="-158.3" font-family="Times,serif" font-size="14.00">G0000</text>
</g>
<!-- G0000&#45;&gt;G0401 -->
<g id="edge1" class="edge"><title>G0000&#45;&gt;G0401</title>
<path fill="none" stroke="black" d="M105.559,-146.496C90.2845,-134.482 68.6853,-117.494 53.4172,-105.485"/>
<text text-anchor="middle" x="54.6038" y="-114.115" font-family="Times,serif" font-size="6.00">0.1</text>
<text text-anchor="middle" x="104.373" y="-135.267" font-family="Times,serif" font-size="6.00">0.1</text>
</g>
<!-- G0000&#45;&gt;G0976 -->
<g id="edge2" class="edge"><title>G0000&#45;&gt;G0976</title>
<path fill="none" stroke="black" d="M124,-143.697C124,-132.846 124,-118.917 124,-108.104"/>
<text text-anchor="middle" x="116.929" y="-113.875" font-family="Times,serif" font-size="6.00">1.0</text>
<text text-anchor="middle" x="131.071" y="-135.326" font-family="Times,serif" font-size="6.00">0.1</text>
</g>
<!-- LG0000 -->
<g id="node5" class="node"><title>LG0000</title>
<ellipse fill="none" stroke="black" cx="237" cy="-90" rx="40.4202" ry="18"/>
<text text-anchor="middle" x="237" y="-86.3" font-family="Times,serif" font-size="14.00">LG0000</text>
</g>
<!-- G0000&#45;&gt;LG0000 -->
<g id="edge3" class="edge"><title>G0000&#45;&gt;LG0000</title>
<path fill="none" stroke="black" d="M145.52,-147.669C165.243,-135.451 194.341,-117.426 214.398,-105.001"/>
<text text-anchor="middle" x="204.663" y="-101.414" font-family="Times,serif" font-size="6.00">0.0</text>
<text text-anchor="middle" x="155.255" y="-148.656" font-family="Times,serif" font-size="6.00">0.0</text>
</g>
</g>
</svg>
