<?xml version="1.0" encoding="UTF-8" standalone="no"?>
<!DOCTYPE svg PUBLIC "-//W3C//DTD SVG 1.1//EN"
 "http://www.w3.org/Graphics/SVG/1.1/DTD/svg11.dtd">
<!-- Generated by graphviz version 2.36.0 (20140111.2315)
 -->
<!-- Title: test Pages: 1 -->
<svg width="267pt" height="188pt"
 viewBox="0.00 0.00 267.00 188.00" xmlns="http://www.w3.org/2000/svg" xmlns:xlink="http://www.w3.org/1999/xlink">
<g id="graph0" class="graph" transform="scale(1 1) rotate(0) translate(4 184)">
<title>test</title>
<polygon fill="white" stroke="none" points="-4,4 -4,-184 263,-184 263,4 -4,4"/>
<!-- G0401 -->
<g id="node1" class="node"><title>G0401</title>
<ellipse fill="none" stroke="black" cx="35" cy="-90" rx="35.6194" ry="18"/>
<text text-anchor="middle" x="35" y="-86.3" font-family="Times,serif" font-size="14.00">G0401</text>
</g>
<!-- TG0000 -->
<g id="node2" class="node"><title>TG0000</title>
<ellipse fill="none" stroke="black" cx="79" cy="-18" rx="40.4202" ry="18"/>
<text text-anchor="middle" x="79" y="-14.3" font-family="Times,serif" font-size="14.00">TG0000</text>
</g>
<!-- G0401&#45;&gt;TG0000 -->
<g id="edge6" class="edge"><title>G0401&#45;&gt;TG0000</title>
<path fill="none" stroke="red" d="M39.7729,-72.055C44.3048,-63.3808 50.8462,-52.6694 57.3688,-43.1473"/>
<polygon fill="red" stroke="red" points="60.343,-45.0046 63.2956,-34.8294 54.6422,-40.9425 60.343,-45.0046"/>
<text text-anchor="middle" x="53.4336" y="-35.1848" font-family="Times,serif" font-size="6.00">0.0</text>
<text text-anchor="middle" x="49.3389" y="-67.8407" font-family="Times,serif" font-size="6.00">0.1</text>
</g>
<!-- G0401&#45;&gt;TG0000 -->
<g id="edge7" class="edge"><title>G0401&#45;&gt;TG0000</title>
<path fill="none" stroke="black" d="M50.4851,-73.4647C58.7905,-62.3479 68.2462,-47.3896 74.2183,-35.9618"/>
<text text-anchor="middle" x="64.6449" y="-37.5512" font-family="Times,serif" font-size="6.00">0.0</text>
<text text-anchor="middle" x="60.3678" y="-70.638" font-family="Times,serif" font-size="6.00">0.1</text>
</g>
<!-- G0802 -->
<g id="node3" class="node"><title>G0802</title>
<ellipse fill="none" stroke="black" cx="124" cy="-90" rx="35.6194" ry="18"/>
<text text-anchor="middle" x="124" y="-86.3" font-family="Times,serif" font-size="14.00">G0802</text>
</g>
<!-- G0802&#45;&gt;TG0000 -->
<g id="edge8" class="edge"><title>G0802&#45;&gt;TG0000</title>
<path fill="none" stroke="blue" d="M108.293,-73.4647C101.879,-65.0402 94.7723,-54.4097 89.0363,-44.7813"/>
<polygon fill="blue" stroke="blue" points="92.0079,-42.9265 84.024,-35.9618 85.9221,-46.3852 92.0079,-42.9265"/>
<text text-anchor="middle" x="81.3702" y="-44.3032" font-family="Times,serif" font-size="6.00">0.0</text>
<text text-anchor="middle" x="109.707" y="-62.2651" font-family="Times,serif" font-size="6.00">1.1</text>
</g>
<!-- G0802&#45;&gt;TG0000 -->
<g id="edge9" class="edge"><title>G0802&#45;&gt;TG0000</title>
<path fill="none" stroke="black" d="M118.985,-72.055C112.904,-60.7255 103.345,-45.9204 94.9306,-34.8294"/>
<text text-anchor="middle" x="93.4802" y="-43.4237" font-family="Times,serif" font-size="6.00">0.0</text>
<text text-anchor="middle" x="121.77" y="-61.1507" font-family="Times,serif" font-size="6.00">1.1</text>
</g>
<!-- G0000 -->
<g id="node4" class="node"><title>G0000</title>
<ellipse fill="none" stroke="black" cx="124" cy="-162" rx="35.6194" ry="18"/>
<text text-anchor="middle" x="124" y="-158.3" font-family="Times,serif" font-size="14.00">G0000</text>
</g>
<!-- G0000&#45;&gt;G0401 -->
<g id="edge1" class="edge"><title>G0000&#45;&gt;G0401</title>
<path fill="none" stroke="black" d="M105.559,-146.496C90.2845,-134.482 68.6853,-117.494 53.4172,-105.485"/>
<text text-anchor="middle" x="54.6038" y="-114.115" font-family="Times,serif" font-size="6.00">0.0</text>
<text text-anchor="middle" x="104.373" y="-135.267" font-family="Times,serif" font-size="6.00">0.1</text>
</g>
<!-- G0000&#45;&gt;G0802 -->
<g id="edge2" class="edge"><title>G0000&#45;&gt;G0802</title>
<path fill="none" stroke="black" d="M112.398,-144.765C109.861,-133.456 109.867,-118.437 112.418,-107.147"/>
<text text-anchor="middle" x="104.112" y="-111.416" font-family="Times,serif" font-size="6.00">0.0</text>
<text text-anchor="middle" x="117.978" y="-135.166" font-family="Times,serif" font-size="6.00">0.1</text>
</g>
<!-- G0000&#45;&gt;G0802 -->
<g id="edge3" class="edge"><title>G0000&#45;&gt;G0802</title>
<path fill="none" stroke="black" d="M124,-143.697C124,-132.846 124,-118.917 124,-108.104"/>
<text text-anchor="middle" x="116.929" y="-113.875" font-family="Times,serif" font-size="6.00">1.0</text>
<text text-anchor="middle" x="131.071" y="-135.326" font-family="Times,serif" font-size="6.00">0.1</text>
</g>
<!-- G0000&#45;&gt;G0802 -->
<g id="edge4" class="edge"><title>G0000&#45;&gt;G0802</title>
<path fill="none" stroke="black" d="M135.602,-144.765C138.139,-133.456 138.133,-118.437 135.582,-107.147"/>
<text text-anchor="middle" x="130.014" y="-114.154" font-family="Times,serif" font-size="6.00">1.1</text>
<text text-anchor="middle" x="143.9" y="-137.885" font-family="Times,serif" font-size="6.00">0.1</text>
</g>
<!-- LG0000 -->
<g id="node5" class="node"><title>LG0000</title>
<ellipse fill="none" stroke="black" cx="219" cy="-90" rx="40.4202" ry="18"/>
<text text-anchor="middle" x="219" y="-86.3" font-family="Times,serif" font-size="14.00">LG0000</text>
</g>
<!-- G0000&#45;&gt;LG0000 -->
<g id="edge5" class="edge"><title>G0000&#45;&gt;LG0000</title>
<path fill="none" stroke="black" d="M143.225,-146.834C159.381,-134.929 182.4,-117.968 198.82,-105.869"/>
<text text-anchor="middle" x="188.933" y="-103.071" font-family="Times,serif" font-size="6.00">0.0</text>
<text text-anchor="middle" x="153.112" y="-147.033" font-family="Times,serif" font-size="6.00">0.0</text>
</g>
</g>
</svg>
